<?xml version="1.0" encoding="UTF-8" standalone="no"?>
<svg width="102px" height="102px" viewBox="0 0 102 102" version="1.1" xmlns="http://www.w3.org/2000/svg" xmlns:xlink="http://www.w3.org/1999/xlink" xmlns:sketch="http://www.bohemiancoding.com/sketch/ns">
    <!-- Generator: Sketch 3.3 (11970) - http://www.bohemiancoding.com/sketch -->
    <title>Untitled 5</title>
    <desc>Created with Sketch.</desc>
    <defs></defs>
    <g id="Page-1" stroke="none" stroke-width="1" fill="none" fill-rule="evenodd" sketch:type="MSPage">
        <g id="noun_178900_cc" sketch:type="MSLayerGroup" transform="translate(51.500000, 50.829932) rotate(-90.000000) translate(-51.500000, -50.829932) translate(3.000000, 2.000000)" stroke="#FFEB93" stroke-width="3">
            <path d="M35.9500957,97.034153 L35.9500957,97.034153 C32.4403498,97.034153 28.9306038,96.6212417 25.8337692,95.7954191 C22.5304788,94.9695965 18.8142772,94.9695965 14.89162,95.7954191 C10.9689628,96.6212417 6.83984986,95.5889634 4.15592648,92.9050401 C1.4720031,90.2211167 0.439724876,86.2984594 1.26554745,82.1693465 C2.09137003,78.2466893 2.09137003,74.5304877 1.26554745,71.2271974 C-3.07002108,54.7107458 3.94947083,34.0651814 19.0207329,18.9939193 C31.2016159,7.01949192 46.4793336,0 61.1376844,0 C64.853886,0 68.3636319,0.412911289 71.6669223,1.23873387 C74.5573013,2.06455645 77.8605916,2.06455645 81.7832488,1.44518951 C85.4994504,0.825822578 89.4221077,2.06455645 92.1060311,4.74847983 C94.7899545,7.43240321 96.0286883,11.3550605 95.4093214,15.0712621 C94.7899545,18.9939193 94.7899545,22.2972096 95.615777,25.1875886 C100.157801,41.9104959 93.1383093,62.762516 77.8605916,77.833778 C65.8861642,90.014661 50.6084465,97.034153 35.9500957,97.034153 L35.9500957,97.034153 Z" id="Shape" sketch:type="MSShapeGroup"></path>
        </g>
    </g>
</svg>