<?xml version="1.0" encoding="UTF-8" standalone="no"?>
<svg width="40px" height="50px" viewBox="0 0 40 50" version="1.1" xmlns="http://www.w3.org/2000/svg" xmlns:xlink="http://www.w3.org/1999/xlink" xmlns:sketch="http://www.bohemiancoding.com/sketch/ns">
    <!-- Generator: Sketch 3.3 (11970) - http://www.bohemiancoding.com/sketch -->
    <title>Artboard 1</title>
    <desc>Created with Sketch.</desc>
    <defs>
        <linearGradient x1="37.925775%" y1="47.9032657%" x2="50%" y2="100%" id="linearGradient-1">
            <stop stop-color="#FFFFFF" stop-opacity="0" offset="0%"></stop>
            <stop stop-color="#9D9B97" offset="100%"></stop>
        </linearGradient>
    </defs>
    <g id="Page-1" stroke="none" stroke-width="1" fill="none" fill-rule="evenodd" sketch:type="MSPage">
        <g id="Artboard-1" sketch:type="MSArtboardGroup">
            <g id="Shape-+-Shape-Copy" sketch:type="MSLayerGroup" transform="translate(5.000000, -1.000000)">
                <path d="M28.8298862,4.04220364 C20.5583628,4.04220364 13.8298862,10.8342036 13.8298862,19.1827036 C13.8298862,23.8087036 16.438948,27.6632036 19.2010761,31.7442036 C22.7617247,37.0052036 26.7974236,42.9677036 26.7974236,52.3422036 C26.7974236,53.4752036 28.1547104,54.0422036 28.8298862,54.0422036 C29.5050621,54.0422036 30.8623488,53.4752036 30.8623488,52.3422036 C30.8623488,42.9677036 34.8980478,37.0052036 38.4586964,31.7447036 C41.2213198,27.6637036 43.8298862,23.8092036 43.8298862,19.1832036 C43.8298862,10.8342036 37.1014096,4.04220364 28.8298862,4.04220364 L28.8298862,4.04220364 Z M29.1716406,25.7055154 C25.0362309,25.7055154 21.6716406,22.3412329 21.6716406,18.2055154 C21.6716406,14.0697979 25.0362309,10.7055154 29.1716406,10.7055154 C33.3070503,10.7055154 36.6716406,14.0697979 36.6716406,18.2055154 C36.6716406,22.3412329 33.3070503,25.7055154 29.1716406,25.7055154 L29.1716406,25.7055154 Z" id="Shape" fill="url(#linearGradient-1)" sketch:type="MSShapeGroup" transform="translate(28.829886, 29.042204) rotate(36.000000) translate(-28.829886, -29.042204) "></path>
                <path d="M15,1 C6.7284766,1 0,7.792 0,16.1405 C0,20.7665 2.60906179,24.621 5.37118986,28.702 C8.93183845,33.963 12.9675374,39.9255 12.9675374,49.3 C12.9675374,50.433 14.3248241,51 15,51 C15.6751759,51 17.0324626,50.433 17.0324626,49.3 C17.0324626,39.9255 21.0681616,33.963 24.6288101,28.7025 C27.3914336,24.6215 30,20.767 30,16.141 C30,7.792 23.2715234,1 15,1 L15,1 Z M15,23 C10.8645903,23 7.5,19.6357175 7.5,15.5 C7.5,11.3642825 10.8645903,8 15,8 C19.1354097,8 22.5,11.3642825 22.5,15.5 C22.5,19.6357175 19.1354097,23 15,23 L15,23 Z" id="Shape-Copy" fill="#FEB26D" sketch:type="MSShapeGroup"></path>
            </g>
        </g>
    </g>
</svg>