<?xml version="1.0" encoding="UTF-8" standalone="no"?>
<svg width="264px" height="43px" viewBox="0 0 264 43" version="1.1" xmlns="http://www.w3.org/2000/svg" xmlns:xlink="http://www.w3.org/1999/xlink" xmlns:sketch="http://www.bohemiancoding.com/sketch/ns">
    <!-- Generator: Sketch 3.3 (11970) - http://www.bohemiancoding.com/sketch -->
    <title>Untitled 5</title>
    <desc>Created with Sketch.</desc>
    <defs></defs>
    <g id="Page-1" stroke="none" stroke-width="1" fill="none" fill-rule="evenodd" sketch:type="MSPage">
        <path d="M244.371,12.279 C239.453,12.279 236.963,10.154 234.556,8.098 C232.254,6.134 230.08,4.279 225.626,4.279 C221.173,4.279 218.998,6.134 216.697,8.099 C214.29,10.154 211.8,12.279 206.882,12.279 C201.964,12.279 199.474,10.154 197.067,8.099 C194.765,6.134 192.592,4.279 188.137,4.279 C183.683,4.279 181.51,6.134 179.209,8.098 C176.801,10.154 174.312,12.279 169.394,12.279 C164.476,12.279 161.986,10.154 159.579,8.099 C157.277,6.134 155.103,4.279 150.649,4.279 C146.195,4.279 144.022,6.134 141.72,8.098 C139.313,10.154 136.823,12.279 131.905,12.279 C126.987,12.279 124.498,10.154 122.091,8.099 C119.79,6.134 117.616,4.279 113.162,4.279 C108.708,4.279 106.535,6.134 104.234,8.098 C101.826,10.154 99.337,12.279 94.419,12.279 C89.502,12.279 87.013,10.154 84.606,8.098 C82.305,6.134 80.131,4.279 75.678,4.279 C71.225,4.279 69.051,6.134 66.75,8.099 C64.342,10.154 61.853,12.279 56.935,12.279 C52.017,12.279 49.527,10.154 47.12,8.099 C44.819,6.134 42.645,4.279 38.191,4.279 C33.737,4.279 31.564,6.134 29.262,8.099 C26.855,10.154 24.366,12.279 19.448,12.279 C14.531,12.279 12.041,10.154 9.634,8.098 C7.333,6.134 5.16,4.279 0.707,4.279 L0.707,0.279 C5.624,0.279 8.113,2.404 10.521,4.46 C12.822,6.424 14.995,8.279 19.448,8.279 C23.901,8.279 26.075,6.424 28.376,4.46 C30.784,2.404 33.273,0.279 38.191,0.279 C43.109,0.279 45.599,2.404 48.006,4.459 C50.307,6.424 52.481,8.279 56.935,8.279 C61.389,8.279 63.562,6.424 65.864,4.459 C68.271,2.404 70.76,0.279 75.678,0.279 C80.596,0.279 83.085,2.404 85.492,4.46 C87.793,6.424 89.967,8.279 94.419,8.279 C98.874,8.279 101.047,6.424 103.349,4.459 C105.756,2.404 108.245,0.279 113.163,0.279 C118.08,0.279 120.57,2.404 122.977,4.459 C125.278,6.424 127.452,8.279 131.906,8.279 C136.36,8.279 138.534,6.424 140.835,4.459 C143.243,2.404 145.732,0.279 150.65,0.279 C155.568,0.279 158.058,2.404 160.466,4.46 C162.768,6.424 164.941,8.279 169.396,8.279 C173.85,8.279 176.024,6.424 178.325,4.459 C180.733,2.404 183.221,0.279 188.139,0.279 C193.057,0.279 195.547,2.404 197.955,4.459 C200.257,6.424 202.43,8.279 206.885,8.279 C211.339,8.279 213.513,6.424 215.814,4.459 C218.221,2.404 220.71,0.279 225.628,0.279 C230.547,0.279 233.036,2.404 235.443,4.459 C237.745,6.424 239.919,8.279 244.373,8.279 C248.827,8.279 251,6.424 253.302,4.46 C255.708,2.404 258.199,0.279 263.117,0.279 L263.117,4.279 C258.663,4.279 256.488,6.134 254.186,8.099 C251.778,10.154 249.289,12.279 244.371,12.279" id="Shape" fill="#ADE1E5" sketch:type="MSShapeGroup"></path>
        <path d="M244.371,27.389 C239.453,27.389 236.963,25.264 234.556,23.207 C232.254,21.243 230.08,19.388 225.626,19.388 C221.173,19.388 218.998,21.243 216.697,23.208 C214.29,25.264 211.8,27.389 206.882,27.389 C201.964,27.389 199.474,25.264 197.067,23.208 C194.765,21.243 192.592,19.388 188.137,19.388 C183.683,19.388 181.51,21.243 179.209,23.207 C176.801,25.264 174.312,27.389 169.394,27.389 C164.476,27.389 161.986,25.264 159.579,23.208 C157.277,21.243 155.103,19.388 150.649,19.388 C146.195,19.388 144.022,21.243 141.72,23.207 C139.313,25.264 136.823,27.389 131.905,27.389 C126.987,27.389 124.498,25.264 122.091,23.208 C119.79,21.243 117.616,19.388 113.162,19.388 C108.708,19.388 106.535,21.243 104.234,23.207 C101.826,25.264 99.337,27.389 94.419,27.389 C89.502,27.389 87.013,25.264 84.606,23.207 C82.305,21.243 80.131,19.388 75.678,19.388 C71.225,19.388 69.051,21.243 66.75,23.208 C64.342,25.264 61.853,27.389 56.935,27.389 C52.017,27.389 49.527,25.264 47.12,23.208 C44.819,21.243 42.645,19.388 38.191,19.388 C33.737,19.388 31.564,21.243 29.262,23.208 C26.855,25.264 24.366,27.389 19.448,27.389 C14.531,27.389 12.041,25.264 9.634,23.207 C7.333,21.243 5.16,19.388 0.707,19.388 L0.707,15.388 C5.624,15.388 8.113,17.513 10.521,19.569 C12.822,21.533 14.995,23.388 19.448,23.388 C23.901,23.388 26.075,21.534 28.376,19.569 C30.784,17.513 33.273,15.388 38.191,15.388 C43.109,15.388 45.599,17.513 48.006,19.568 C50.307,21.533 52.481,23.388 56.935,23.388 C61.389,23.388 63.562,21.534 65.864,19.568 C68.271,17.513 70.76,15.388 75.678,15.388 C80.596,15.388 83.085,17.513 85.492,19.569 C87.793,21.533 89.967,23.388 94.419,23.388 C98.874,23.388 101.047,21.534 103.349,19.568 C105.756,17.513 108.245,15.388 113.163,15.388 C118.08,15.388 120.57,17.513 122.977,19.568 C125.278,21.533 127.452,23.388 131.906,23.388 C136.36,23.388 138.534,21.534 140.835,19.568 C143.243,17.513 145.732,15.388 150.65,15.388 C155.568,15.388 158.058,17.513 160.466,19.569 C162.768,21.533 164.941,23.388 169.396,23.388 C173.85,23.388 176.024,21.534 178.325,19.568 C180.733,17.513 183.221,15.388 188.139,15.388 C193.057,15.388 195.547,17.513 197.955,19.568 C200.257,21.533 202.43,23.388 206.885,23.388 C211.339,23.388 213.513,21.534 215.814,19.568 C218.221,17.513 220.71,15.388 225.628,15.388 C230.547,15.388 233.036,17.513 235.443,19.568 C237.745,21.533 239.919,23.388 244.373,23.388 C248.827,23.388 251,21.534 253.302,19.569 C255.708,17.513 258.199,15.388 263.117,15.388 L263.117,19.388 C258.663,19.388 256.488,21.243 254.186,23.208 C251.778,25.264 249.289,27.389 244.371,27.389" id="Shape" fill="#ADE1E5" sketch:type="MSShapeGroup"></path>
        <path d="M244.371,42.498 C239.453,42.498 236.963,40.373 234.556,38.317 C232.254,36.352 230.08,34.498 225.626,34.498 C221.173,34.498 218.998,36.352 216.697,38.318 C214.29,40.373 211.8,42.498 206.882,42.498 C201.964,42.498 199.474,40.373 197.067,38.318 C194.765,36.352 192.592,34.498 188.137,34.498 C183.683,34.498 181.51,36.352 179.209,38.317 C176.801,40.373 174.312,42.498 169.394,42.498 C164.476,42.498 161.986,40.373 159.579,38.318 C157.277,36.352 155.103,34.498 150.649,34.498 C146.195,34.498 144.022,36.352 141.72,38.317 C139.313,40.373 136.823,42.498 131.905,42.498 C126.987,42.498 124.498,40.373 122.091,38.318 C119.79,36.352 117.616,34.498 113.162,34.498 C108.708,34.498 106.535,36.352 104.234,38.317 C101.826,40.373 99.337,42.498 94.419,42.498 C89.502,42.498 87.013,40.373 84.606,38.317 C82.305,36.352 80.131,34.498 75.678,34.498 C71.225,34.498 69.051,36.352 66.75,38.318 C64.342,40.373 61.853,42.498 56.935,42.498 C52.017,42.498 49.527,40.373 47.12,38.318 C44.819,36.352 42.645,34.498 38.191,34.498 C33.737,34.498 31.564,36.352 29.262,38.318 C26.855,40.373 24.366,42.498 19.448,42.498 C14.531,42.498 12.041,40.373 9.634,38.317 C7.333,36.352 5.16,34.498 0.707,34.498 L0.707,30.498 C5.624,30.498 8.113,32.623 10.521,34.68 C12.822,36.644 14.995,38.498 19.448,38.498 C23.901,38.498 26.075,36.644 28.376,34.68 C30.784,32.623 33.273,30.498 38.191,30.498 C43.109,30.498 45.599,32.623 48.006,34.678 C50.307,36.644 52.481,38.498 56.935,38.498 C61.389,38.498 63.562,36.644 65.864,34.678 C68.271,32.623 70.76,30.498 75.678,30.498 C80.596,30.498 83.085,32.623 85.492,34.68 C87.793,36.644 89.967,38.498 94.419,38.498 C98.874,38.498 101.047,36.644 103.349,34.678 C105.756,32.623 108.245,30.498 113.163,30.498 C118.08,30.498 120.57,32.623 122.977,34.678 C125.278,36.644 127.452,38.498 131.906,38.498 C136.36,38.498 138.534,36.644 140.835,34.678 C143.243,32.623 145.732,30.498 150.65,30.498 C155.568,30.498 158.058,32.623 160.466,34.68 C162.768,36.644 164.941,38.498 169.396,38.498 C173.85,38.498 176.024,36.644 178.325,34.678 C180.733,32.623 183.221,30.498 188.139,30.498 C193.057,30.498 195.547,32.623 197.955,34.678 C200.257,36.644 202.43,38.498 206.885,38.498 C211.339,38.498 213.513,36.644 215.814,34.678 C218.221,32.623 220.71,30.498 225.628,30.498 C230.547,30.498 233.036,32.623 235.443,34.678 C237.745,36.644 239.919,38.498 244.373,38.498 C248.827,38.498 251,36.644 253.302,34.68 C255.708,32.623 258.199,30.498 263.117,30.498 L263.117,34.498 C258.663,34.498 256.488,36.352 254.186,38.318 C251.778,40.373 249.289,42.498 244.371,42.498" id="Shape" fill="#ADE1E5" sketch:type="MSShapeGroup"></path>
    </g>
</svg>